<svg xmlns="http://www.w3.org/2000/svg" width="1000" height="1000" id="empty" style=""><g id="logo" transform="matrix(1,0,0,1,0,0)"><g id="icon" transform="matrix(1.3897713640634748,0,0,1.389771219358594,0,-4.287492705814564)"><path fill="#d01e26" d="M570.8361218548433 239.42315568052118C566.0361218548433 303.7231556805212 555.7361218548433 306.1231556805212 555.7361218548433 306.1231556805212C504.93612185484324 166.32315568052118 419.2361218548433 140.1231556805212 419.2361218548433 140.1231556805212C413.6361218548433 280.6231556805212 318.43612185484324 357.7231556805212 318.43612185484324 357.7231556805212C284.33612185484327 347.4231556805212 292.2361218548433 301.32315568052115 292.2361218548433 301.32315568052115C141.33612185484327 516.5231556805212 347.83612185484327 613.3231556805212 347.83612185484327 613.3231556805212L385.7361218548433 614.2231556805212C376.53612185484326 590.8231556805212 344.93612185484324 526.4231556805212 347.43612185484324 524.7231556805212C346.43612185484324 525.3231556805212 341.7361218548433 523.6231556805212 340.6361218548433 523.4231556805212C338.43612185484324 522.9231556805212 336.2361218548433 522.3231556805212 334.1361218548433 521.7231556805212C329.93612185484324 520.5231556805212 325.83612185484327 518.9231556805212 321.83612185484327 517.2231556805212C314.2361218548433 513.8231556805212 306.93612185484324 509.5231556805212 300.2361218548433 504.6231556805212C281.53612185484326 490.72315568052124 265.6361218548433 471.0231556805212 256.4361218548433 449.5231556805212C256.03612185484326 448.5231556805212 255.53612185484326 447.4231556805212 255.43612185484326 446.32315568052115C255.23612185484328 444.32315568052115 256.4361218548433 442.6231556805212 257.83612185484327 441.32315568052115C258.03612185484326 441.1231556805212 260.33612185484327 439.4231556805212 260.33612185484327 439.32315568052115C258.9361218548433 433.0231556805212 260.73612185484325 425.6231556805212 263.1361218548433 419.9231556805212C265.73612185484325 413.82315568052115 269.6361218548433 408.1231556805212 274.53612185484326 403.6231556805212C279.1361218548433 399.32315568052115 284.83612185484327 396.4231556805212 289.93612185484324 392.6231556805212C292.33612185484327 390.82315568052115 294.7361218548433 389.0231556805212 297.03612185484326 387.1231556805212C302.93612185484324 382.32315568052115 308.7361218548433 377.2231556805212 314.33612185484327 372.1231556805212C314.33612185484327 372.1231556805212 314.43612185484324 372.1231556805212 314.43612185484324 372.0231556805212C317.33612185484327 369.32315568052115 320.2361218548433 366.6231556805212 323.1361218548433 363.9231556805212C324.53612185484326 362.5231556805212 326.03612185484326 361.2231556805212 327.43612185484324 359.82315568052115C328.03612185484326 359.2231556805212 328.7361218548433 358.6231556805212 329.33612185484327 357.9231556805212C329.83612185484327 357.32315568052115 330.43612185484324 356.7231556805212 331.2361218548433 356.4231556805212C332.53612185484326 355.9231556805212 333.93612185484324 356.2231556805212 335.2361218548433 356.1231556805212C336.6361218548433 356.0231556805212 338.1361218548433 356.0231556805212 339.53612185484326 355.9231556805212C342.53612185484326 355.82315568052115 345.53612185484326 355.82315568052115 348.6361218548433 355.9231556805212C354.1361218548433 356.1231556805212 359.93612185484324 356.5231556805212 365.2361218548433 358.1231556805212C365.53612185484326 358.7231556805212 369.33612185484327 358.1231556805212 370.43612185484324 358.1231556805212C373.33612185484327 358.2231556805212 375.2361218548433 364.0231556805212 375.2361218548433 364.0231556805212C375.2361218548433 364.0231556805212 379.43612185484324 365.0231556805212 380.03612185484326 367.7231556805212C380.6361218548433 370.4231556805212 382.2361218548433 385.22315568052124 382.2361218548433 387.0231556805212C381.33612185484327 392.32315568052115 374.83612185484327 397.5231556805212 370.83612185484327 400.22315568052124C369.1361218548433 401.4231556805212 366.83612185484327 401.1231556805212 365.33612185484327 399.6231556805212C363.7361218548433 397.9231556805212 363.83612185484327 395.32315568052115 365.43612185484324 393.72315568052124L367.33612185484327 391.82315568052115L340.93612185484324 382.5231556805212C340.93612185484324 382.5231556805212 326.33612185484327 399.5231556805212 324.53612185484326 405.9231556805212C325.43612185484324 425.1231556805212 314.33612185484327 441.32315568052115 314.33612185484327 441.32315568052115L314.93612185484324 446.9231556805212C314.93612185484324 446.9231556805212 339.43612185484324 440.1231556805212 358.93612185484324 461.82315568052115C386.83612185484327 454.4231556805212 409.83612185484327 481.72315568052124 409.83612185484327 481.72315568052124L423.43612185484324 474.32315568052115L423.7361218548433 474.32315568052115C424.2361218548433 463.32315568052115 425.2361218548433 442.6231556805212 425.43612185484324 441.22315568052124C422.7361218548433 442.82315568052115 420.83612185484327 439.9231556805212 419.93612185484324 437.72315568052124C418.6361218548433 434.32315568052115 417.2361218548433 430.32315568052115 417.33612185484327 426.6231556805212C417.33612185484327 425.0231556805212 417.7361218548433 423.4231556805212 418.43612185484324 422.0231556805212C418.7361218548433 421.4231556805212 421.33612185484327 418.32315568052115 421.2361218548433 418.0231556805212C420.33612185484327 414.32315568052115 419.93612185484324 410.32315568052115 419.83612185484327 406.5231556805212C419.53612185484326 396.82315568052115 421.43612185484324 386.6231556805212 427.43612185484324 378.7231556805212C436.83612185484327 366.4231556805212 453.33612185484327 362.6231556805212 466.93612185484324 370.0231556805212C472.7361218548433 373.1231556805212 477.3361218548433 377.9231556805212 480.3361218548433 383.7231556805212C483.93612185484324 390.82315568052115 485.03612185484326 398.9231556805212 484.8361218548433 406.72315568052124C484.7361218548433 409.4231556805212 484.53612185484326 412.22315568052124 484.03612185484326 414.9231556805212C483.93612185484324 415.22315568052124 483.2361218548433 417.82315568052115 483.43612185484324 418.0231556805212C486.3361218548433 421.32315568052115 488.1361218548433 424.4231556805212 487.1361218548433 428.82315568052115C486.53612185484326 431.6231556805212 484.6361218548433 444.32315568052115 479.2361218548433 441.32315568052115C479.3361218548433 442.6231556805212 480.3361218548433 463.32315568052115 480.93612185484324 474.4231556805212L481.2361218548433 474.4231556805212L494.8361218548433 481.82315568052115C494.8361218548433 481.82315568052115 517.8361218548433 454.5231556805212 545.7361218548433 461.9231556805212C565.2361218548433 440.22315568052124 589.7361218548433 447.0231556805212 589.7361218548433 447.0231556805212L590.3361218548433 441.4231556805212C590.3361218548433 441.4231556805212 579.1361218548433 425.32315568052115 580.1361218548433 406.0231556805212C578.3361218548433 399.72315568052124 563.7361218548433 382.6231556805212 563.7361218548433 382.6231556805212L537.3361218548433 391.9231556805212L539.2361218548433 393.82315568052115C540.8361218548433 395.4231556805212 540.9361218548432 398.0231556805212 539.3361218548433 399.72315568052124C537.9361218548432 401.22315568052124 535.5361218548433 401.5231556805212 533.8361218548433 400.32315568052115C529.8361218548433 397.6231556805212 523.3361218548433 392.32315568052115 522.4361218548432 387.1231556805212C522.4361218548432 385.32315568052115 524.0361218548433 370.5231556805212 524.6361218548433 367.82315568052115C525.2361218548433 365.1231556805212 529.4361218548432 364.1231556805212 529.4361218548432 364.1231556805212C529.4361218548432 364.1231556805212 531.3361218548433 358.32315568052115 534.2361218548433 358.2231556805212C535.3361218548433 358.2231556805212 539.0361218548433 358.82315568052115 539.4361218548432 358.2231556805212C549.7361218548433 355.1231556805212 560.5361218548433 355.82315568052115 571.1361218548433 356.2231556805212C571.8361218548433 356.2231556805212 572.5361218548433 356.2231556805212 573.1361218548433 356.5231556805212C575.5361218548433 357.32315568052115 578.0361218548433 360.7231556805212 579.8361218548433 362.4231556805212C582.5361218548433 364.9231556805212 585.2361218548433 367.4231556805212 587.8361218548433 369.9231556805212C596.5361218548433 377.9231556805212 605.2361218548433 385.9231556805212 614.7361218548433 393.0231556805212C620.4361218548432 397.22315568052124 626.4361218548432 400.5231556805212 631.5361218548433 405.6231556805212C636.6361218548433 410.72315568052124 640.5361218548433 416.9231556805212 642.7361218548433 423.72315568052124C643.9361218548432 427.4231556805212 644.6361218548433 431.32315568052115 644.5361218548433 435.22315568052124C644.5361218548433 435.5231556805212 644.0361218548433 439.5231556805212 644.1361218548433 439.6231556805212C646.7361218548433 441.22315568052124 648.9361218548432 443.5231556805212 648.9361218548432 446.4231556805212C648.9361218548432 447.1231556805212 648.8361218548433 447.72315568052124 648.5361218548433 448.4231556805212C643.5361218548433 462.1231556805212 634.4361218548432 474.9231556805212 624.8361218548433 485.82315568052115C607.2361218548433 505.9231556805212 583.7361218548433 520.8231556805212 557.1361218548433 525.1231556805212C559.8361218548433 526.8231556805212 525.0361218548433 597.4231556805212 517.7361218548433 617.6231556805212L555.4361218548432 618.5231556805212C811.4361218548432 459.32315568052115 570.8361218548433 239.42315568052118 570.8361218548433 239.42315568052118Z " transform="matrix(0.7745820179786183,0,0,0.774582022748863,7.175411639557485,2.4795908705517746)"></path><g transform="matrix(1.5491640359572365,0,0,1.549164045497726,7.175411639557485,2.4795908705517746)"></g></g><g id="brand" fill="#003170" transform="matrix(1.3897713640634748,0,0,1.389771219358594,0,614.939053223508)"><g transform="matrix(1,0,0,1,0,0)"><path id="text" transform="matrix(1 0 0 1 -3.84 68.16)" d="M237.8514164291625 98.57644459315628C222.8754164291625 100.17644459315628 209.1154164291625 100.97644459315627 196.57141642916253 100.97644459315627C190.2994164291625 100.97644459315627 185.6914164291625 99.50444459315628 182.7474164291625 96.56044459315628C179.80341642916252 93.61644459315627 178.33141642916252 89.00844459315628 178.33141642916252 82.73644459315628L178.33141642916252 52.01644459315628C178.33141642916252 45.29644459315628 179.85141642916253 40.41644459315628 182.89141642916252 37.37644459315628C185.9314164291625 34.33644459315627 190.8114164291625 32.81644459315628 197.5314164291625 32.81644459315628L232.0914164291625 32.81644459315628L232.0914164291625 46.25644459315628L201.3714164291625 46.25644459315628C197.5314164291625 46.25644459315628 195.61141642916252 48.176444593156276 195.61141642916252 52.01644459315628L195.61141642916252 82.73644459315628C195.61141642916252 84.20844459315629 196.0434164291625 85.37644459315628 196.9074164291625 86.24044459315628C197.7714164291625 87.10444459315627 198.93941642916252 87.53644459315628 200.4114164291625 87.53644459315628C207.7714164291625 87.53644459315628 214.4914164291625 87.37644459315628 220.57141642916253 87.05644459315627L220.57141642916253 73.13644459315628L208.0914164291625 73.13644459315628L208.0914164291625 61.61644459315628L237.8514164291625 61.61644459315628L237.8514164291625 98.57644459315628ZM290.6514164291625 51.05644459315628C290.6514164291625 47.21644459315628 288.7314164291625 45.29644459315628 284.8914164291625 45.29644459315628L268.5714164291625 45.29644459315628C264.7314164291625 45.29644459315628 262.8114164291625 47.21644459315628 262.8114164291625 51.05644459315628L262.8114164291625 81.77644459315628C262.8114164291625 85.61644459315627 264.7314164291625 87.53644459315628 268.5714164291625 87.53644459315628L284.8914164291625 87.53644459315628C288.7314164291625 87.53644459315628 290.6514164291625 85.61644459315627 290.6514164291625 81.77644459315628L290.6514164291625 51.05644459315628ZM307.9314164291625 81.77644459315628C307.9314164291625 88.49644459315628 306.4114164291625 93.37644459315628 303.37141642916254 96.41644459315629C300.3314164291625 99.45644459315628 295.4514164291625 100.97644459315627 288.7314164291625 100.97644459315627L264.7314164291625 100.97644459315627C258.0114164291625 100.97644459315627 253.13141642916253 99.45644459315628 250.0914164291625 96.41644459315629C247.05141642916251 93.37644459315628 245.5314164291625 88.49644459315628 245.5314164291625 81.77644459315628L245.5314164291625 51.05644459315628C245.5314164291625 44.33644459315628 247.05141642916251 39.45644459315628 250.0914164291625 36.41644459315628C253.13141642916253 33.37644459315628 258.0114164291625 31.856444593156283 264.7314164291625 31.856444593156283L288.7314164291625 31.856444593156283C295.4514164291625 31.856444593156283 300.3314164291625 33.37644459315628 303.37141642916254 36.41644459315628C306.4114164291625 39.45644459315628 307.9314164291625 44.33644459315628 307.9314164291625 51.05644459315628L307.9314164291625 81.77644459315628ZM403.9314164291625 98.57644459315628C388.9554164291625 100.17644459315628 375.1954164291625 100.97644459315627 362.6514164291625 100.97644459315627C356.3794164291625 100.97644459315627 351.7714164291625 99.50444459315628 348.82741642916255 96.56044459315628C345.8834164291625 93.61644459315627 344.4114164291625 89.00844459315628 344.4114164291625 82.73644459315628L344.4114164291625 52.01644459315628C344.4114164291625 45.29644459315628 345.9314164291625 40.41644459315628 348.9714164291625 37.37644459315628C352.0114164291625 34.33644459315627 356.8914164291625 32.81644459315628 363.61141642916255 32.81644459315628L398.1714164291625 32.81644459315628L398.1714164291625 46.25644459315628L367.4514164291625 46.25644459315628C363.61141642916255 46.25644459315628 361.6914164291625 48.176444593156276 361.6914164291625 52.01644459315628L361.6914164291625 82.73644459315628C361.6914164291625 84.20844459315629 362.1234164291625 85.37644459315628 362.9874164291625 86.24044459315628C363.85141642916255 87.10444459315627 365.0194164291625 87.53644459315628 366.49141642916254 87.53644459315628C373.85141642916255 87.53644459315628 380.5714164291625 87.37644459315628 386.6514164291625 87.05644459315627L386.6514164291625 73.13644459315628L374.1714164291625 73.13644459315628L374.1714164291625 61.61644459315628L403.9314164291625 61.61644459315628L403.9314164291625 98.57644459315628ZM402.0114164291625 32.81644459315628L420.25141642916253 32.81644459315628L436.09141642916256 65.45644459315628L451.9314164291625 32.81644459315628L470.1714164291625 32.81644459315628L444.73141642916255 82.25644459315627L444.73141642916255 100.01644459315628L427.4514164291625 100.01644459315628L427.4514164291625 82.25644459315627L402.0114164291625 32.81644459315628ZM531.6114164291625 62.57644459315628L518.1714164291625 86.57644459315628L504.73141642916255 86.57644459315628L491.2914164291625 62.57644459315628L491.2914164291625 100.01644459315628L474.0114164291625 100.01644459315628L474.0114164291625 32.81644459315628L492.25141642916253 32.81644459315628L511.45141642916246 68.33644459315627L530.6514164291625 32.81644459315628L548.8914164291625 32.81644459315628L548.8914164291625 100.01644459315628L531.6114164291625 100.01644459315628L531.6114164291625 62.57644459315628Z "></path></g></g></g></svg>